<svg enable-background="new 0 0 32 32" fill=" " height="512" viewBox="0 0 32 32" width="512" xmlns="http://www.w3.org/2000/svg"><path d="m26 32h-20c-3.314 0-6-2.686-6-6v-20c0-3.314 2.686-6 6-6h20c3.314 0 6 2.686 6 6v20c0 3.314-2.686 6-6 6z" fill="#e3f8fa"/><path d="m22.167 8h-12.334c-1.011 0-1.833.822-1.833 1.833v12.333c0 1.012.822 1.834 1.833 1.834h12.333c1.012 0 1.834-.822 1.834-1.833v-12.334c0-1.011-.822-1.833-1.833-1.833z" fill="#26c6da"/><g fill="#8ce1eb"><path d="m18.667 19.333h-5.333c-.368 0-.667-.299-.667-.667s.298-.666.666-.666h5.333c.368 0 .667.299.667.667s-.298.666-.666.666z"/><path d="m18.667 16.667h-5.333c-.368 0-.667-.299-.667-.667s.298-.667.667-.667h5.333c.368 0 .667.299.667.667s-.299.667-.667.667z"/><path d="m18.667 14h-5.333c-.368 0-.667-.299-.667-.667s.298-.667.667-.667h5.333c.368 0 .667.299.667.667s-.299.667-.667.667z"/></g></svg>